<?xml version="1.0" standalone="no"?>
<!DOCTYPE svg PUBLIC "-//W3C//DTD SVG 20010904//EN"
 "http://www.w3.org/TR/2001/REC-SVG-20010904/DTD/svg10.dtd">
<svg version="1.0" xmlns="http://www.w3.org/2000/svg"
 width="7500.000000pt" height="5000.000000pt" viewBox="0 0 7500.000000 5000.000000"
 preserveAspectRatio="xMidYMid meet">

<g transform="translate(0.000000,5000.000000) scale(0.100000,-0.100000)"
fill="#000000" stroke="none">
<path d="M29985 40261 c-130 -36 -220 -85 -348 -189 -270 -220 -548 -742 -587
-1104 -40 -366 -148 -539 -510 -812 -247 -187 -341 -266 -455 -381 -223 -224
-364 -476 -416 -740 -17 -88 -18 -329 0 -410 33 -157 100 -309 186 -424 l53
-70 -40 -133 c-161 -541 -248 -1079 -219 -1347 23 -213 75 -297 221 -358 218
-91 467 -122 980 -124 317 -1 461 6 820 42 251 24 266 24 273 -1 5 -20 12 -20
1868 -18 l1862 3 167 415 c92 228 284 706 428 1063 l260 647 -1422 0 -1423 0
-38 -97 c-36 -92 -55 -130 -55 -107 0 47 -168 1014 -201 1156 l-20 87 25 43
c65 111 110 312 122 537 33 644 -288 1768 -618 2163 -29 35 -62 59 -121 88
-138 67 -157 70 -552 84 -149 6 -179 4 -240 -13z m923 -898 c77 -110 102 -208
109 -433 6 -201 -3 -267 -63 -427 -78 -209 -165 -362 -237 -414 -45 -32 -89
-37 -177 -18 -28 6 -54 8 -57 5 -3 -3 -16 -63 -29 -133 -28 -150 -51 -192
-129 -232 -70 -37 -202 -36 -330 3 -87 26 -435 190 -435 205 0 4 12 18 26 32
56 52 112 202 155 409 22 112 25 158 15 315 -4 63 -2 137 6 200 l13 100 155 6
c85 3 176 11 201 17 158 39 379 148 589 291 80 54 150 99 157 100 6 1 20 -11
31 -26z m-2104 -3958 c20 -116 46 -328 46 -381 l0 -42 -107 25 c-150 35 -197
54 -201 79 -2 11 13 52 34 90 66 127 197 335 204 327 4 -4 15 -48 24 -98z
m4106 -20 c37 -19 50 -43 50 -92 0 -86 -93 -173 -184 -173 -30 0 -45 7 -73 35
-32 32 -35 39 -30 77 7 55 52 116 106 145 51 27 90 29 131 8z m-2123 -765 c92
-44 168 -82 171 -84 10 -10 -21 -46 -40 -46 -19 0 -20 -1 -6 -17 14 -16 15
-22 1 -55 -9 -22 -22 -38 -31 -38 -12 0 -13 -3 -5 -11 6 -6 9 -18 6 -25 -10
-28 -46 -13 -105 44 -59 56 -61 57 -117 55 -31 0 -94 -13 -141 -27 -185 -57
-236 -67 -356 -73 l-122 -6 -4 129 c-3 71 -8 136 -12 145 -6 13 12 19 111 38
410 80 424 79 650 -29z"/>
<path d="M25364 31175 c-3 -8 33 -169 80 -357 48 -189 89 -352 91 -363 3 -11
21 -83 40 -160 20 -77 38 -149 40 -160 3 -11 21 -83 40 -160 20 -77 38 -149
40 -160 3 -10 25 -100 51 -200 25 -99 106 -421 181 -715 74 -294 141 -560 149
-590 8 -30 16 -68 19 -85 3 -16 13 -55 21 -85 9 -30 18 -68 21 -85 3 -16 8
-37 13 -45 6 -13 20 -74 20 -90 0 -3 9 -39 21 -80 12 -41 23 -88 26 -105 3
-16 8 -37 13 -45 6 -12 20 -76 21 -95 0 -2 9 -37 21 -77 11 -40 22 -86 25
-103 3 -16 8 -37 13 -45 4 -8 11 -33 15 -55 5 -22 9 -44 11 -50 38 -151 346
-1376 349 -1390 3 -11 21 -83 40 -160 20 -77 38 -149 40 -160 3 -11 21 -83 40
-160 20 -77 38 -149 40 -160 3 -11 21 -83 40 -160 20 -77 38 -150 41 -161 2
-12 31 -129 65 -260 33 -132 114 -455 180 -719 66 -264 124 -493 129 -510 15
-52 32 -118 37 -145 2 -14 13 -59 24 -100 11 -41 22 -86 25 -100 2 -14 9 -39
15 -57 5 -17 12 -44 15 -60 3 -15 14 -62 25 -103 11 -41 22 -86 25 -100 2 -14
9 -39 15 -57 5 -17 12 -44 15 -60 3 -15 14 -62 25 -103 11 -41 22 -86 25 -100
2 -14 9 -39 15 -56 5 -17 12 -41 14 -53 7 -29 -22 87 365 -1456 193 -770 398
-1589 456 -1820 57 -231 113 -451 124 -490 16 -57 75 -292 95 -380 3 -11 21
-83 40 -160 20 -77 38 -149 40 -160 3 -11 21 -83 40 -160 20 -77 38 -149 40
-161 3 -11 29 -117 59 -235 47 -183 310 -1225 320 -1269 2 -8 9 -35 16 -60 7
-25 13 -52 15 -60 2 -13 1116 -15 9951 -17 l9949 -2 -61 57 c-592 554 -1684
1588 -1684 1594 0 11 390 428 400 428 7 0 2277 -2135 2417 -2272 95 -94 136
-156 148 -220 14 -73 2 -96 -119 -223 l-113 -120 -69 0 c-100 1 -146 29 -324
196 -170 159 -156 161 -140 -16 5 -55 22 -264 39 -465 88 -1033 170 -1769 306
-2754 61 -442 123 -950 155 -1261 12 -115 25 -237 31 -270 13 -88 55 -541 84
-908 67 -873 89 -1639 64 -2177 -6 -129 -12 -248 -13 -264 -1 -24 4 -31 23
-36 14 -3 26 -10 28 -16 6 -19 -163 -170 -274 -244 -187 -125 -423 -224 -648
-270 -154 -32 -244 -82 -295 -166 l-22 -34 -13927 0 -13927 0 -12 34 c-7 19
-31 53 -54 76 -64 63 -163 105 -360 151 -95 22 -186 48 -203 59 -54 34 -194
240 -291 431 -25 51 -221 823 -353 1394 -185 803 -310 1454 -356 1850 -10 93
-14 221 -13 450 2 333 -2 394 -48 713 -106 745 -377 1816 -791 3132 -153 485
-151 480 -300 1015 -74 270 -136 491 -137 491 0 1 -80 7 -176 13 -1142 75
-2004 337 -2532 768 -108 89 -255 247 -321 344 -53 81 -137 243 -137 268 0 23
-19 9 -90 -61 -289 -290 -505 -763 -590 -1288 -11 -69 -29 -235 -40 -370 -21
-248 -47 -527 -164 -1735 -152 -1563 -188 -2023 -204 -2601 l-7 -250 -82 -110
c-635 -852 -941 -2092 -883 -3576 7 -189 12 -363 11 -386 -3 -62 -32 -134 -97
-237 -116 -186 -144 -272 -147 -457 l-2 -118 -2816 0 -2816 0 -27 -21 c-21
-17 -26 -29 -26 -68 0 -26 7 -56 16 -69 l15 -22 31714 0 c28079 0 31715 2
31728 15 36 35 32 123 -6 150 -19 13 -974 15 -8479 15 l-8458 0 10 23 c30 72
72 295 97 525 l18 163 35 9 36 10 -3 272 c-10 831 -45 1718 -98 2428 -33 434
-94 1055 -115 1165 -5 28 -24 151 -41 275 -59 432 -121 741 -234 1170 -122
463 -177 823 -220 1420 -34 487 -56 1444 -40 1803 l7 177 1129 0 c792 0 1129
3 1129 11 0 6 -18 74 -41 152 -22 78 -49 174 -59 212 -10 39 -40 147 -65 240
-26 94 -51 184 -55 200 -4 17 -22 82 -40 145 -18 63 -37 131 -42 150 -5 19
-13 49 -18 65 -36 129 -56 201 -65 240 -4 16 -26 96 -80 285 -3 8 -9 31 -14
50 -8 32 -18 69 -72 265 -28 102 -56 202 -74 270 -9 33 -23 85 -32 115 -9 30
-18 60 -19 65 -1 6 -10 37 -19 70 -9 33 -23 83 -30 110 -7 28 -26 100 -43 160
-34 121 -109 394 -167 605 -21 74 -49 173 -62 220 -14 47 -26 90 -27 95 -2 6
-8 30 -15 55 -7 25 -15 54 -17 65 -2 11 -13 52 -24 90 -12 39 -23 79 -25 90
-3 11 -28 101 -56 200 -44 158 -92 329 -103 375 -2 8 -10 35 -17 60 -7 25 -13
50 -15 55 -5 27 -26 103 -33 125 -5 14 -17 54 -26 90 -10 36 -23 85 -30 110
-28 99 -37 132 -86 310 -27 102 -61 226 -75 275 -14 50 -32 113 -39 140 -8 28
-27 97 -43 155 -17 58 -44 159 -62 225 -18 66 -57 208 -87 315 -53 189 -100
359 -107 390 -3 8 -14 49 -26 90 -11 41 -23 82 -25 90 -1 8 -10 42 -20 75 -31
113 -36 130 -40 151 -3 12 -14 52 -26 89 -11 38 -23 75 -25 84 -12 51 -124
462 -195 716 -11 39 -33 120 -50 180 -17 61 -35 126 -40 145 -22 76 -30 106
-33 121 -3 9 -28 101 -57 205 -29 104 -60 218 -70 254 -9 36 -34 124 -54 195
-19 72 -38 139 -40 150 -4 16 -48 176 -124 445 -18 63 -82 295 -85 310 -2 8
-11 40 -19 70 -8 30 -25 91 -37 135 -12 44 -39 143 -61 220 -22 77 -42 147
-44 155 -2 8 -15 58 -30 110 -14 52 -35 127 -45 166 l-19 71 59 131 c78 173
140 347 181 507 29 114 34 146 34 260 l0 131 -35 59 c-51 88 -216 249 -336
328 -55 36 -156 93 -223 125 l-124 60 -24 88 c-13 49 -25 98 -28 109 -3 11
-11 43 -19 70 -8 28 -38 136 -67 240 -28 105 -69 251 -90 325 -33 115 -80 287
-93 340 -2 8 -11 42 -21 75 -20 75 -57 206 -83 305 -12 41 -28 100 -37 130 -9
30 -29 105 -46 165 -16 61 -31 117 -34 125 -2 8 -9 31 -14 50 -47 179 -63 237
-86 315 -24 80 -48 166 -60 217 -2 9 -9 26 -15 37 l-11 21 -7820 0 -7821 0 40
-73 c84 -153 385 -724 512 -970 l132 -258 -27 -29 -28 -29 53 -61 c79 -91 123
-126 301 -239 246 -156 394 -220 513 -221 44 0 20 -20 -81 -68 -156 -73 -245
-94 -428 -99 -135 -4 -190 -1 -353 21 -107 15 -227 29 -267 33 l-72 6 -6 111
c-6 135 -20 178 -100 310 -50 80 -68 102 -89 106 -54 10 -927 794 -1416 1272
l-192 188 -268 0 c-147 0 -277 -3 -289 -6 -16 -5 -29 -27 -54 -97 -61 -172
-641 -1732 -650 -1749 -7 -13 -22 -18 -53 -18 l-44 0 -71 -252 c-128 -456
-153 -597 -155 -848 -1 -163 8 -199 86 -333 22 -38 37 -71 35 -74 -10 -9 -190
90 -266 147 -162 121 -268 258 -442 572 -118 211 -146 259 -168 275 -14 10 -9
14 29 31 25 10 80 31 122 46 136 49 181 95 244 253 27 64 104 302 104 318 0 2
-20 15 -45 30 -42 24 -45 29 -41 58 3 18 13 97 21 177 39 365 125 985 181
1309 19 115 22 146 12 153 -7 4 -1560 8 -3451 8 -3020 0 -3438 -2 -3443 -15z
m18703 -1495 c290 -238 533 -437 540 -444 8 -7 14 -60 17 -151 3 -77 8 -203
11 -280 11 -253 12 -289 14 -347 1 -43 5 -58 15 -58 8 0 18 -5 21 -10 4 -6 1
-9 -7 -8 -10 2 -13 -13 -13 -62 0 -52 3 -64 15 -62 11 2 11 -1 -2 -11 -20 -16
-25 -87 -7 -87 5 0 7 -5 4 -10 -4 -6 4 -20 17 -31 13 -11 18 -18 12 -15 -7 3
-16 0 -21 -7 -13 -17 -17 -214 -4 -221 6 -4 8 2 6 14 -2 11 0 20 6 20 10 0 8
-28 -4 -48 -9 -14 -5 -132 4 -138 3 -2 4 -16 2 -31 -8 -51 -2 -167 10 -182 9
-12 9 -13 0 -7 -10 5 -12 -6 -8 -46 2 -29 9 -54 15 -56 5 -2 10 -8 10 -14 0
-6 -6 -8 -12 -5 -10 3 -12 -21 -6 -112 6 -107 22 -623 20 -663 0 -10 4 -18 9
-18 6 0 7 6 3 13 -4 6 -3 8 1 4 12 -10 15 -38 4 -31 -5 3 -9 0 -9 -5 0 -14 27
-14 35 -1 3 6 14 9 23 9 15 -1 15 -2 0 -6 -22 -6 -24 -23 -2 -23 8 0 13 -4 9
-9 -11 -18 -12 -70 -2 -74 11 -3 1 -27 -12 -27 -9 0 -35 51 -32 64 1 5 -5 6
-12 3 -9 -3 -50 36 -115 111 -120 140 -390 407 -522 517 -671 557 -1469 893
-2360 992 -213 23 -675 23 -888 0 -294 -33 -565 -88 -831 -168 -73 -22 -135
-38 -138 -36 -4 5 -8 78 -17 327 -8 205 -15 400 -21 535 -2 61 -7 173 -10 250
-3 77 -7 192 -10 255 -2 63 -7 187 -10 275 -3 88 -8 215 -11 281 l-6 121 193
8 c107 4 226 9 264 10 39 1 151 6 250 10 99 4 187 7 195 7 22 0 457 17 590 23
63 3 192 7 285 10 94 3 213 7 265 10 52 3 221 10 375 16 154 6 316 12 360 14
44 2 170 6 280 10 110 4 270 10 355 13 85 4 194 8 242 10 l86 3 529 -431z
m715 -1225 c10 6 10 5 2 -4 -8 -9 -17 -8 -37 2 -15 8 -24 17 -20 21 3 3 14 -1
24 -10 10 -9 23 -13 31 -9z m141 -25 c9 -10 9 -11 0 -6 -7 4 -13 2 -13 -4 0
-8 -6 -8 -20 0 -11 6 -18 15 -15 20 7 11 33 7 48 -10z m-109 -12 c-5 -7 -2 -9
8 -6 8 4 21 2 29 -3 9 -5 4 -7 -16 -5 -17 2 -31 4 -33 5 -5 2 8 21 14 21 3 0
2 -5 -2 -12z m167 -5 c13 -16 12 -17 -3 -4 -15 11 -21 11 -35 0 -16 -13 -17
-12 -4 4 7 9 17 17 21 17 4 0 14 -8 21 -17z m69 -9 c0 -2 -11 -3 -24 -2 -14 1
-23 5 -20 9 4 7 44 0 44 -7z m-335 -13 c3 -5 2 -12 -3 -15 -5 -3 -9 1 -9 9 0
17 3 19 12 6z m-13140 -51 c27 -27 47 -50 44 -50 -3 0 -27 23 -54 50 -27 28
-47 50 -44 50 3 0 27 -22 54 -50z m13611 38 c5 -7 3 -8 -6 -3 -10 6 -12 4 -6
-10 5 -15 4 -16 -9 -5 -13 11 -13 15 -3 21 17 11 16 11 24 -3z m84 -8 c0 -5 5
-10 11 -10 5 0 7 5 4 10 -10 17 2 11 16 -7 7 -10 9 -15 4 -10 -4 4 -19 0 -33
-9 -13 -9 -22 -11 -18 -6 3 6 2 13 -4 17 -5 3 -10 2 -10 -4 0 -6 -8 -7 -17 -4
-16 6 -17 5 -3 -13 14 -18 14 -18 -3 -5 -19 15 -18 18 15 37 29 15 38 17 38 4z
m70 -26 c0 -8 -4 -14 -8 -14 -4 0 -8 9 -8 19 0 11 4 17 8 15 4 -3 8 -12 8 -20z
m57 -1 c2 -6 -1 -14 -6 -18 -7 -4 -8 1 -4 12 6 16 5 16 -10 4 -10 -8 -20 -11
-24 -7 -3 3 -1 6 6 6 7 0 10 4 7 9 -4 5 2 8 11 7 9 -2 19 -8 20 -13z m-234 -6
c3 -8 -1 -14 -8 -14 -7 0 -11 6 -8 14 3 7 6 13 8 13 2 0 5 -6 8 -13z m312 -7
c-3 -5 -14 -10 -23 -10 -15 0 -15 2 -2 10 20 13 33 13 25 0z m157 -38 c-7 -2
-9 -9 -6 -14 4 -6 2 -8 -4 -4 -5 3 -13 0 -16 -6 -3 -7 -4 -4 -3 7 2 23 17 36
31 28 6 -4 5 -8 -2 -11z m88 2 c0 -8 -19 -13 -24 -6 -3 5 1 9 9 9 8 0 15 -2
15 -3z m63 -17 c-2 -4 -3 -15 -4 -24 0 -15 -2 -15 -9 2 -5 11 -9 16 -9 12 -1
-5 -6 -5 -11 -2 -6 4 -8 10 -5 15 6 9 41 6 38 -3z m31 -13 c3 -8 2 -12 -4 -9
-6 3 -10 10 -10 16 0 14 7 11 14 -7z m-79 -4 c3 -5 1 -10 -4 -10 -6 0 -11 5
-11 10 0 6 2 10 4 10 3 0 8 -4 11 -10z m290 -30 c-3 -5 -12 -10 -18 -10 -7 0
-6 4 3 10 19 12 23 12 15 0z m39 -12 c-3 -4 1 -8 9 -8 22 0 41 -26 26 -36 -7
-4 -9 -3 -5 4 3 6 2 13 -4 17 -5 3 -10 1 -10 -6 0 -7 -3 -9 -7 -6 -3 4 -11 -1
-18 -10 -9 -13 -14 -13 -20 -3 -6 9 -4 11 5 5 10 -6 12 -4 7 9 -4 10 -3 15 3
11 13 -8 13 8 0 21 -7 7 -6 11 4 11 8 0 13 -4 10 -9z m96 -23 c0 -2 -9 -3 -19
-2 -11 0 -18 5 -15 9 4 6 34 0 34 -7z m-26 -23 c3 -5 -1 -9 -9 -9 -8 0 -12 4
-9 9 3 4 7 8 9 8 2 0 6 -4 9 -8z m59 -10 c14 -15 15 -19 2 -19 -8 0 -12 4 -9
9 3 4 -2 8 -11 8 -9 0 -13 5 -10 10 8 13 9 13 28 -8z m-3 -36 c0 -2 -8 -10
-17 -17 -16 -13 -17 -12 -4 4 13 16 21 21 21 13z m35 -24 c-3 -3 -11 0 -18 7
-9 10 -8 11 6 5 10 -3 15 -9 12 -12z m38 -49 c18 -20 18 -21 1 -19 -9 2 -19
13 -21 26 -2 13 -2 22 -1 19 2 -2 11 -14 21 -26z m-1569 -19 c3 -8 2 -12 -4
-9 -6 3 -10 10 -10 16 0 14 7 11 14 -7z m-5232 -24 c32 -10 77 -29 100 -43 43
-25 136 -113 127 -120 -2 -3 -49 -23 -104 -46 -957 -403 -1767 -1173 -2225
-2116 -182 -374 -311 -783 -379 -1195 -48 -294 -55 -391 -55 -725 0 -334 7
-431 55 -721 175 -1072 741 -2032 1599 -2715 230 -182 570 -394 830 -516 443
-209 899 -338 1410 -399 145 -18 615 -26 805 -14 l80 5 52 -820 c29 -451 50
-843 47 -871 -15 -142 -147 -287 -289 -318 -17 -3 -1567 -103 -3445 -220
-2487 -156 -3428 -212 -3462 -206 -153 29 -274 157 -298 317 -17 106 -582
9190 -577 9264 10 153 122 288 272 328 29 7 1088 81 1168 81 9 0 6 75 -15 322
-9 109 -9 149 2 195 34 154 148 277 300 323 57 17 111 23 340 35 52 3 131 7
175 10 205 12 611 35 715 40 63 3 147 7 185 10 59 4 320 19 710 40 50 3 212
12 360 20 149 8 313 17 365 20 52 3 246 14 430 24 184 10 360 20 390 20 30 1
57 4 59 7 13 13 220 0 273 -16z m5258 5 c0 -8 -4 -15 -10 -15 -5 0 -7 7 -4 15
4 8 8 15 10 15 2 0 4 -7 4 -15z m5510 -245 c61 -441 153 -700 250 -700 14 0
68 9 120 21 157 34 252 24 276 -28 4 -10 11 -90 14 -178 12 -285 91 -491 251
-659 108 -115 199 -147 339 -123 l45 7 2 -132 c2 -193 9 -233 38 -246 37 -17
111 -124 176 -256 l58 -119 53 -21 c553 -225 1020 -1557 1307 -3731 128 -963
199 -1916 208 -2787 9 -849 -9 -978 -161 -1136 -215 -224 -645 -377 -1277
-453 -161 -20 -234 -23 -584 -23 -412 -1 -516 5 -785 45 -455 68 -789 182
-1038 352 -40 28 -84 64 -98 80 l-26 31 5 425 c4 375 19 853 46 1491 4 107 7
196 6 198 -1 1 -103 -38 -226 -87 -582 -232 -1348 -487 -2165 -721 -134 -39
-249 -70 -256 -70 -6 0 -26 14 -44 31 l-31 30 -99 -45 c-180 -82 -385 -129
-564 -129 -101 0 -108 1 -204 42 -244 104 -308 148 -353 238 -22 47 -27 69
-27 137 0 84 10 118 43 136 42 22 203 31 344 19 76 -6 144 -8 152 -5 12 4 5
25 -32 102 -53 108 -64 186 -31 207 14 9 26 2 70 -39 92 -87 209 -156 318
-187 30 -9 95 -37 143 -62 48 -25 94 -45 101 -45 7 0 19 12 27 26 37 70 2107
1521 2513 1762 99 59 134 86 154 117 39 60 111 227 187 430 73 194 72 186 88
487 l5 86 -48 -29 c-89 -54 -335 -168 -455 -209 -358 -123 -622 -169 -1020
-177 -239 -5 -268 -3 -365 17 -374 76 -835 316 -1337 693 -92 70 -147 105
-157 101 -9 -3 -13 -11 -10 -16 4 -6 10 -5 15 3 7 11 9 10 9 -3 0 -9 -4 -20
-10 -23 -5 -3 -10 -1 -10 5 0 6 -4 9 -9 5 -10 -6 -7 27 4 45 8 13 -43 33 -58
23 -7 -4 -6 1 2 10 17 21 8 22 -12 2 -13 -13 -16 -13 -21 1 -3 8 -2 12 3 9 5
-3 13 0 17 6 4 8 3 9 -4 5 -7 -4 -12 -1 -12 7 0 8 -8 22 -19 31 -16 14 -19 15
-24 3 -3 -8 -4 -23 -2 -33 2 -11 4 -22 4 -26 1 -5 6 -8 12 -8 8 0 8 4 0 14 -9
10 -8 15 1 19 8 3 14 -5 14 -19 2 -19 -3 -24 -23 -24 -32 0 -53 22 -53 55 0
22 3 25 20 20 11 -3 20 -4 20 -1 0 12 -103 115 -114 113 -6 -1 -10 4 -8 11 1
6 -2 11 -7 10 -5 -2 -16 6 -24 16 -11 15 -16 16 -22 6 -6 -9 -4 -11 5 -5 9 5
11 4 6 -4 -10 -16 -26 -4 -19 15 5 13 1 15 -15 10 -11 -4 -23 -2 -27 4 -3 5
-11 10 -16 10 -6 0 -7 -5 -3 -11 4 -8 0 -8 -15 0 -22 12 -28 31 -10 31 8 0 8
4 -1 14 -9 11 -9 19 0 33 10 16 11 16 7 -5 -3 -12 -1 -19 4 -16 5 3 8 0 7 -8
-2 -7 3 -12 10 -10 6 1 11 -3 10 -9 -2 -6 5 -13 14 -14 20 -4 13 21 -9 29 -11
5 -12 10 -5 19 7 8 7 18 2 27 -5 8 -6 18 -3 23 7 12 -6 57 -17 57 -5 0 -7 -8
-3 -17 3 -10 -4 -5 -17 10 -17 22 -25 26 -31 15 -7 -11 -11 -10 -19 2 -8 12
-10 10 -11 -10 0 -23 -1 -23 -8 -5 -5 11 -7 23 -5 27 3 4 -1 10 -7 14 -8 4 -9
3 -5 -4 9 -14 -3 -15 -23 -3 -18 11 -25 44 -8 34 9 -5 9 -3 0 8 -9 11 -9 34
-2 89 26 198 9 420 -47 587 -42 127 -44 180 -7 223 19 23 32 31 50 27 13 -2
26 0 30 6 3 5 2 7 -3 4 -6 -3 -11 3 -11 14 -1 10 3 19 8 19 6 0 8 -4 4 -9 -3
-5 -1 -13 5 -16 6 -4 10 -14 9 -23 -3 -30 1 -43 10 -38 5 3 7 15 4 26 -4 16
-2 19 11 14 11 -4 16 -2 14 6 -2 7 5 14 15 15 9 2 17 -1 17 -6 0 -5 -5 -9 -11
-9 -8 0 -8 -4 -1 -12 6 -7 10 -25 9 -41 -2 -22 -4 -25 -13 -13 -8 12 -14 12
-22 4 -14 -14 2 -38 25 -38 8 0 11 -5 8 -10 -4 -6 -12 -8 -18 -4 -7 3 -4 -1 5
-9 10 -8 15 -17 12 -20 -3 -3 -2 -12 2 -19 5 -7 9 -15 9 -18 1 -3 9 -19 18
-37 18 -33 48 -37 42 -5 -2 9 -4 22 -4 27 -1 6 -5 4 -10 -4 -7 -11 -10 -9 -16
8 -3 11 -11 21 -16 21 -5 0 -9 4 -9 10 0 5 7 7 15 4 8 -4 15 -1 15 7 0 7 3 10
6 7 3 -4 5 -9 5 -12 -1 -4 6 -20 14 -36 9 -17 15 -36 14 -43 -4 -35 2 -67 14
-67 7 0 21 -15 31 -32 9 -18 14 -24 11 -13 -11 35 -10 39 10 43 16 3 18 1 8
-9 -14 -14 -18 -33 -5 -25 4 2 7 -7 7 -22 -1 -30 13 -55 26 -46 5 3 16 -2 25
-11 15 -15 14 -16 -12 -10 -16 3 -22 2 -14 -2 9 -5 16 -16 16 -25 3 -39 5 -43
15 -24 9 14 8 21 -2 28 -11 8 -10 8 4 4 29 -9 17 36 -12 51 l-25 12 30 -1 c25
-1 29 -5 31 -31 1 -16 -2 -37 -7 -47 -6 -11 -5 -21 3 -30 9 -10 9 -11 0 -6 -6
3 -14 2 -18 -4 -3 -5 -1 -10 4 -10 6 0 11 -12 11 -26 0 -14 4 -23 10 -19 6 3
10 1 10 -4 0 -34 15 -51 43 -45 11 2 24 -1 27 -6 3 -5 15 -11 25 -13 11 -1 25
-6 31 -10 6 -3 38 -13 71 -21 58 -13 60 -13 59 7 -1 12 6 21 17 23 9 1 15 -2
12 -6 -3 -5 -1 -11 4 -15 6 -3 15 4 21 15 17 31 29 15 25 -33 l-4 -42 132 -39
c286 -83 717 -197 914 -241 198 -45 213 -47 323 -42 77 3 146 13 210 30 405
107 989 432 1704 948 l182 132 33 121 c19 67 70 230 113 362 70 213 86 252
137 330 72 112 146 192 222 243 l60 40 4 308 c2 169 7 319 10 333 6 25 5 26
-117 53 -222 49 -247 61 -290 147 -98 196 -101 596 -8 1136 54 310 120 544
188 662 l37 64 7 -49 c4 -26 16 -118 28 -203z m-3865 180 c3 -6 -1 -7 -9 -4
-18 7 -21 14 -7 14 6 0 13 -4 16 -10z m2 -35 c0 -8 -4 -12 -9 -9 -5 3 -6 10
-3 15 9 13 12 11 12 -6z m8 -53 c-6 -7 -35 18 -35 31 0 5 9 2 20 -8 11 -10 18
-20 15 -23z m-1669 -10 c-17 -16 -18 -16 -5 5 7 12 15 20 18 17 3 -2 -3 -12
-13 -22z m1709 7 c-4 -5 -12 -9 -18 -8 -9 0 -8 2 1 6 6 2 9 10 6 15 -4 7 -2 8
5 4 6 -4 9 -12 6 -17z m29 -7 c3 -5 -1 -9 -9 -9 -8 0 -12 4 -9 9 3 4 7 8 9 8
2 0 6 -4 9 -8z m-9 -34 c4 -3 2 -9 -3 -12 -5 -3 -15 1 -21 8 -10 11 -9 14 3
12 9 -1 18 -5 21 -8z m-4885 -28 c1288 -90 2417 -747 3115 -1810 256 -390 420
-758 535 -1202 93 -358 124 -614 124 -1013 0 -382 -27 -617 -114 -970 -254
-1036 -921 -1938 -1841 -2488 -1284 -768 -2888 -762 -4169 15 -537 326 -1018
807 -1347 1348 -299 492 -484 1027 -560 1615 -26 201 -26 760 0 960 156 1199
784 2217 1777 2882 718 480 1624 723 2480 663z m4930 -5 c17 -20 7 -30 -17
-16 -14 8 -14 10 -3 11 13 0 13 1 0 10 -8 5 -10 10 -4 10 6 0 17 -7 24 -15z
m-1763 -57 c4 -28 -6 -18 -12 12 -2 12 -1 20 2 16 4 -4 8 -16 10 -28z m-14667
-72 c287 -68 505 -190 715 -400 106 -106 142 -152 289 -370 194 -286 255 -364
360 -464 215 -204 467 -340 751 -405 85 -19 128 -21 722 -24 l632 -4 5 -42 c5
-42 397 -7081 396 -7124 l0 -23 -1938 0 c-1896 0 -1941 0 -2016 20 -101 26
-216 87 -293 155 -71 64 -152 179 -182 259 -15 42 -2272 8278 -2307 8419 l-6
28 1398 -4 c1299 -3 1404 -4 1474 -21z m16555 -37 c-8 -12 -32 -12 -39 0 -4 5
4 7 16 3 16 -4 19 -2 13 8 -5 9 -4 11 4 6 6 -4 9 -12 6 -17z m53 -64 c-3 -3
-9 2 -12 12 -6 14 -5 15 5 6 7 -7 10 -15 7 -18z m37 -65 c3 -5 1 -10 -4 -10
-6 0 -11 5 -11 10 0 6 2 10 4 10 3 0 8 -4 11 -10z m55 -75 c0 -12 -19 -12 -23
0 -4 9 -1 12 9 8 7 -3 14 -7 14 -8z m17 -7 c-2 -7 3 -22 12 -33 16 -20 16 -20
-6 -1 -20 17 -27 15 -25 -5 1 -3 -5 -6 -12 -6 -7 0 -13 6 -13 13 0 7 4 11 8 8
5 -3 14 4 21 16 14 22 22 26 15 8z m57 -46 c3 -5 -1 -9 -9 -9 -8 0 -12 4 -9 9
3 4 7 8 9 8 2 0 6 -4 9 -8z m25 -36 c9 -11 8 -14 -6 -12 -10 0 -18 -4 -18 -11
0 -6 -3 -14 -7 -18 -8 -8 -4 13 7 38 9 21 9 21 24 3z m76 -123 c0 -19 8 -31
25 -40 16 -8 19 -13 9 -13 -21 0 -53 36 -44 49 3 6 0 11 -7 11 -9 0 -9 3 2 10
9 6 10 10 3 10 -7 0 -17 10 -24 23 l-11 22 23 -23 c14 -13 24 -34 24 -49z m53
-73 c-7 -10 -15 -16 -18 -12 -3 4 -9 11 -15 15 -6 5 -3 7 7 3 10 -3 20 -1 23
4 4 6 8 10 11 10 2 0 -1 -9 -8 -20z m22 -145 c0 -2 -10 -9 -22 -15 -22 -11
-22 -10 -4 4 21 17 26 19 26 11z m-24 -61 c1 -9 0 -13 -4 -10 -3 4 -7 14 -8
22 -1 9 0 13 4 10 3 -4 7 -14 8 -22z m4 -48 c0 -3 -4 -8 -10 -11 -5 -3 -10 -1
-10 4 0 6 5 11 10 11 6 0 10 -2 10 -4z m-49 -93 c13 -16 12 -17 -3 -4 -17 13
-22 21 -14 21 2 0 10 -8 17 -17z m9 -95 c0 -15 -34 23 -36 41 -2 11 3 9 17 -8
10 -13 19 -28 19 -33z m-30 -23 c0 -2 -6 -5 -13 -8 -8 -3 -14 1 -14 8 0 7 6
11 14 8 7 -3 13 -6 13 -8z m-2140 -30 c0 -7 -30 -13 -34 -7 -3 4 4 9 15 9 10
1 19 0 19 -2z m2146 -19 c0 -14 -4 -22 -8 -20 -4 3 -8 14 -8 25 0 10 4 19 8
19 4 0 8 -11 8 -24z m-24 -42 c-7 -12 -9 -8 -10 18 -1 26 1 30 9 16 6 -11 6
-24 1 -34z m-2097 26 c3 -5 1 -10 -4 -10 -6 0 -11 5 -11 10 0 6 2 10 4 10 3 0
8 -4 11 -10z m2108 -101 c-8 -8 -13 -7 -18 2 -5 8 -4 10 3 5 7 -4 12 -2 12 5
0 7 3 9 7 6 4 -4 2 -12 -4 -18z m-8 -29 c3 -5 1 -10 -4 -10 -6 0 -11 5 -11 10
0 6 2 10 4 10 3 0 8 -4 11 -10z m-2022 -88 c3 7 4 3 4 -9 -1 -25 -12 -21 -27
10 -10 20 -10 21 3 4 11 -14 16 -15 20 -5z m1972 -22 c-10 -11 -20 -18 -23
-15 -7 6 18 35 31 35 5 0 2 -9 -8 -20z m-1975 -25 c7 -8 8 -15 2 -15 -5 0 -15
7 -22 15 -7 8 -8 15 -2 15 5 0 15 -7 22 -15z m1976 -4 c-4 -5 0 -11 6 -14 10
-3 10 -8 -1 -18 -8 -8 -11 -9 -7 -2 3 6 2 14 -4 18 -10 6 -5 25 6 25 3 0 3 -4
0 -9z m-1920 -24 c4 -3 2 -13 -5 -21 -9 -11 -9 -15 1 -18 7 -3 8 -7 3 -10 -6
-3 -21 9 -35 26 -18 23 -19 27 -4 13 20 -16 34 -14 34 5 0 5 -4 7 -9 3 -5 -3
-12 -1 -15 4 -7 10 20 9 30 -2z m34 -25 c0 -13 -12 -22 -22 -16 -10 6 -1 24
13 24 5 0 9 -4 9 -8z m1861 -24 c-10 -11 -11 -9 -5 6 6 15 4 17 -6 11 -9 -6
-11 -4 -5 4 5 9 10 10 18 2 8 -8 7 -14 -2 -23z m-1861 -10 c0 -4 -7 -8 -15 -8
-8 0 -15 4 -15 8 0 5 7 9 15 9 8 0 15 -4 15 -9z m80 -25 c0 -10 -4 -14 -8 -8
-4 6 -11 13 -16 18 -5 4 -2 7 7 7 10 0 17 -8 17 -17z m1810 12 c0 -2 -6 -8
-13 -14 -10 -8 -14 -7 -14 2 0 8 6 14 14 14 7 0 13 -1 13 -2z m-1875 -15 c3 5
11 10 16 10 6 0 8 -4 5 -9 -8 -12 19 -33 29 -23 4 4 2 -3 -4 -15 -11 -21 -8
-27 11 -24 11 1 2 -33 -11 -37 -9 -3 -9 -7 0 -18 8 -10 8 -14 0 -14 -13 0 -13
0 -16 59 -3 43 -17 63 -40 55 -7 -3 -15 2 -19 12 -5 14 -4 15 8 5 10 -8 16 -9
21 -1z m1869 -29 c3 -5 -2 -15 -12 -22 -16 -13 -16 -13 -2 5 14 18 13 19 -3
13 -11 -4 -16 -3 -12 3 8 12 22 13 29 1z m-1857 -23 c1 -10 -2 -18 -8 -18 -5
0 -9 2 -9 4 0 2 -2 11 -5 19 -3 7 0 14 8 14 7 0 14 -9 14 -19z m1837 -26 c3
-5 -1 -9 -9 -9 -8 0 -12 4 -9 9 3 4 7 8 9 8 2 0 6 -4 9 -8z m2 -42 c0 -9 -5
-17 -11 -17 -6 0 -11 8 -11 17 0 9 5 17 11 17 6 0 11 -8 11 -17z m-1750 -31
c4 -8 9 -8 17 0 16 16 31 13 18 -3 -7 -8 -8 -17 -3 -20 7 -4 9 -45 2 -53 -2
-2 -3 -7 -4 -12 -2 -19 -12 -19 -24 -1 -9 16 -9 18 2 14 8 -3 17 -1 21 5 3 6
-1 11 -10 11 -9 0 -14 4 -10 9 3 6 -3 14 -12 20 -13 8 -14 10 -3 11 19 0 1 17
-25 23 -18 4 -18 5 2 6 12 0 25 -4 29 -10z m1748 -14 c-4 -8 -11 -12 -16 -9
-6 4 -5 10 3 15 19 12 19 11 13 -6z m-1661 -146 c-6 -6 -8 -19 -6 -30 5 -19 7
-19 24 -3 12 11 19 13 19 5 0 -6 -7 -14 -15 -17 -8 -4 -13 -10 -10 -14 3 -5 0
-12 -6 -16 -8 -4 -9 -3 -5 4 4 7 3 12 -2 12 -12 0 -22 38 -15 56 3 8 10 14 16
14 8 0 8 -3 0 -11z m1631 2 c3 -4 -3 -16 -14 -26 -19 -17 -19 -17 -7 9 14 29
14 29 21 17z m-1597 -79 c0 -10 -6 -19 -13 -19 -9 0 -9 5 -1 19 7 10 13 18 14
18 1 0 1 -8 0 -18z m1583 3 c0 -2 -6 -8 -13 -14 -10 -8 -14 -7 -14 2 0 8 6 14
14 14 7 0 13 -1 13 -2z m-16 -34 c19 9 19 9 4 -4 -14 -11 -15 -16 -5 -27 10
-12 9 -12 -5 -1 -9 7 -21 10 -25 8 -5 -3 -9 3 -9 14 0 12 4 15 10 9 6 -6 17
-5 30 1z m-8 -66 c1 -8 -4 -11 -12 -8 -10 4 -12 0 -8 -11 3 -9 11 -13 18 -9 6
4 5 -1 -3 -10 -24 -30 -35 0 -16 46 8 19 18 16 21 -8z m-1493 -18 c4 3 7 1 7
-5 0 -7 -4 -12 -10 -12 -5 0 -10 -5 -10 -11 0 -6 6 -9 13 -6 15 6 21 -29 6
-38 -5 -4 -6 2 -2 11 4 11 2 15 -4 11 -12 -7 -22 12 -29 53 -4 23 -3 23 9 8 8
-10 17 -15 20 -11z m1485 -92 c-3 -3 -9 2 -12 12 -6 14 -5 15 5 6 7 -7 10 -15
7 -18z m-15 -25 c3 -11 1 -18 -4 -14 -5 3 -9 12 -9 20 0 20 7 17 13 -6z
m-1379 -24 c5 -20 5 -21 -9 -2 -8 11 -15 15 -15 9 0 -15 -38 -13 -44 2 -2 6
10 11 29 12 26 0 34 -4 39 -21z m-9 -26 c12 -19 14 -71 3 -68 -17 6 -43 48
-29 48 6 0 11 -7 11 -15 0 -8 5 -15 10 -15 13 0 12 11 -4 32 -7 10 -16 15 -19
11 -4 -3 -7 -1 -7 5 0 14 26 16 35 2z m1325 -65 c0 -2 -6 -5 -13 -8 -8 -3 -14
1 -14 8 0 7 6 11 14 8 7 -3 13 -6 13 -8z m30 1 c0 -2 -8 -10 -17 -17 -16 -13
-17 -12 -4 4 13 16 21 21 21 13z m-1340 -26 c0 -5 -5 -10 -11 -10 -5 0 -7 5
-4 10 3 6 8 10 11 10 2 0 4 -4 4 -10z m40 -47 c0 -13 -3 -13 -15 -3 -8 7 -12
16 -9 21 8 13 24 1 24 -18z m19 -23 c-11 -22 -22 -40 -25 -40 -3 0 -3 4 0 9 4
5 0 12 -6 14 -8 3 -6 6 5 6 10 1 17 9 17 21 0 11 5 20 11 20 5 0 7 5 3 12 -4
6 -3 8 4 5 7 -5 4 -20 -9 -47z m1281 40 c0 -5 -5 -10 -11 -10 -5 0 -7 5 -4 10
3 6 8 10 11 10 2 0 4 -4 4 -10z m-1276 -82 c-19 -21 -19 -21 0 -14 16 5 17 4
6 -9 -8 -10 -9 -15 -1 -15 6 0 11 -5 11 -11 0 -5 -6 -7 -12 -3 -9 5 -9 2 1 -9
9 -12 10 -17 2 -17 -12 0 -20 15 -26 47 -2 16 20 53 33 53 3 0 -3 -10 -14 -22z
m1268 8 c7 4 8 2 4 -5 -9 -13 -26 -5 -25 12 0 9 2 8 6 -1 2 -6 10 -9 15 -6z
m-12 -50 c-7 -7 -13 -7 -20 0 -6 6 -3 10 10 10 13 0 16 -4 10 -10z m-4 -43
c-3 -20 -22 -28 -31 -14 -4 7 0 8 10 5 9 -4 15 -3 14 2 -2 13 0 24 5 24 2 0 3
-8 2 -17z m-1238 -28 c-3 -3 -9 2 -12 12 -6 14 -5 15 5 6 7 -7 10 -15 7 -18z
m57 -56 c-6 -32 -12 -34 -12 -4 0 14 3 25 8 25 4 0 6 -10 4 -21z m-28 -5 c-3
-4 -2 -15 4 -25 6 -13 6 -19 -1 -19 -5 0 -10 4 -10 9 0 5 -3 16 -6 25 -4 10
-1 16 7 16 7 0 9 -3 6 -6z m50 -36 c-3 -8 -6 -5 -6 6 -1 11 2 17 5 13 3 -3 4
-12 1 -19z m-23 -29 c-2 -4 1 -9 8 -11 6 -2 12 -11 14 -20 1 -11 -3 -15 -12
-11 -8 3 -12 8 -9 11 3 3 -2 13 -10 22 -13 14 -13 17 0 17 8 0 12 -4 9 -8z
m21 -69 c-3 -5 -12 -10 -18 -10 -7 0 -6 4 3 10 19 12 23 12 15 0z m1086 -36
c-11 -15 -21 -24 -21 -20 0 12 33 57 37 52 3 -3 -4 -17 -16 -32z m-1081 6 c0
-5 -5 -10 -11 -10 -5 0 -7 5 -4 10 3 6 8 10 11 10 2 0 4 -4 4 -10z m1107 -15
c0 -8 -4 -12 -9 -9 -5 3 -6 10 -3 15 9 13 12 11 12 -6z m-38 -32 c-4 -23 3
-32 19 -27 14 5 15 4 2 -5 -11 -8 -18 -7 -27 6 -7 9 -10 20 -7 24 6 11 14 12
13 2z m-1015 -19 c3 -9 4 -20 0 -25 -3 -5 0 -9 7 -9 6 0 9 8 6 20 -3 11 -1 23
4 26 5 3 9 -6 9 -20 0 -18 -9 -30 -29 -40 -34 -18 -50 -9 -21 11 19 13 30 40
12 29 -5 -3 -9 1 -9 9 0 20 13 19 21 -1z m-5 -74 c-13 -10 -19 -19 -13 -20 5
0 15 5 21 11 7 7 12 6 16 -5 4 -10 1 -13 -7 -10 -8 3 -17 0 -21 -6 -3 -6 -3
-10 2 -9 19 3 33 -2 33 -12 0 -5 -4 -7 -10 -4 -5 3 -10 -3 -10 -14 0 -10 6
-21 13 -24 7 -2 8 -8 3 -13 -5 -5 -11 -4 -13 4 -3 6 -8 10 -12 7 -5 -2 -7 7
-5 20 1 14 -1 25 -6 25 -17 0 -20 45 -3 58 27 20 37 14 12 -8z m1032 -14 c-6
-7 -8 -15 -5 -18 2 -3 -2 -8 -11 -12 -13 -4 -14 -2 -5 14 9 16 7 20 -7 21 -16
0 -15 1 2 8 25 11 39 3 26 -13z m-1006 -126 c3 -5 2 -10 -4 -10 -5 0 -13 5
-16 10 -3 6 -2 10 4 10 5 0 13 -4 16 -10z m1 -46 c1 -9 0 -13 -4 -10 -3 4 -7
14 -8 22 -1 9 0 13 4 10 3 -4 7 -14 8 -22z m1 -46 c-3 -8 -6 -5 -6 6 -1 11 2
17 5 13 3 -3 4 -12 1 -19z m59 -7 c-3 -5 1 -11 9 -15 8 -3 15 -11 15 -18 0
-10 -2 -10 -9 1 -5 8 -14 10 -21 6 -8 -5 -11 -4 -7 2 4 6 0 13 -8 17 -8 3 -14
2 -14 -2 3 -16 -2 -23 -11 -17 -16 10 8 35 32 35 10 0 17 -4 14 -9z m898 -20
c3 -5 -2 -15 -12 -22 -15 -12 -16 -12 -5 2 7 9 10 19 6 22 -3 4 -4 7 0 7 3 0
8 -4 11 -9z m-914 -32 c0 -14 -29 -17 -34 -4 -3 9 2 13 15 12 10 -1 19 -4 19
-8z m28 -40 c3 -11 2 -11 -7 1 -10 13 -12 13 -20 0 -5 -8 -7 -18 -4 -24 9 -14
11 -66 2 -66 -13 0 -18 29 -6 34 9 3 8 8 -3 15 -8 6 -11 11 -5 11 5 0 4 5 -3
12 -9 9 -7 14 6 24 20 16 34 13 40 -7z m862 17 c0 -3 -4 -8 -10 -11 -5 -3 -10
-1 -10 4 0 6 5 11 10 11 6 0 10 -2 10 -4z m-15 -56 c-5 -8 -11 -8 -17 -2 -6 6
-7 16 -3 22 5 8 11 8 17 2 6 -6 7 -16 3 -22z m-835 2 c0 -12 -3 -12 -15 -2 -8
7 -15 13 -15 15 0 1 7 2 15 2 8 0 15 -7 15 -15z m-6 -52 c-6 -6 -10 -3 -10 10
0 13 4 16 10 10 7 -7 7 -13 0 -20z m851 21 c3 -6 -3 -9 -14 -8 -11 0 -17 5
-15 9 7 11 22 10 29 -1z m-25 -41 c-6 -11 -8 -25 -5 -30 3 -5 1 -11 -4 -14
-10 -7 -8 35 3 52 12 20 17 13 6 -8z m-820 -10 c0 -5 -2 -10 -4 -10 -3 0 -8 5
-11 10 -3 6 -1 10 4 10 6 0 11 -4 11 -10z m-26 -32 c-6 -20 -5 -21 10 -9 13
11 16 11 16 -1 0 -7 -9 -14 -20 -15 -15 -1 -19 4 -18 23 1 13 6 24 11 24 5 0
5 -10 1 -22z m856 -18 c-8 -5 -19 -10 -25 -10 -5 0 -3 5 5 10 8 5 20 10 25 10
6 0 3 -5 -5 -10z m-840 -28 c0 -5 -7 -9 -15 -9 -8 0 -15 4 -15 9 0 4 7 8 15 8
8 0 15 -4 15 -8z m835 -10 c-3 -3 -11 0 -18 7 -9 10 -8 11 6 5 10 -3 15 -9 12
-12z m-836 -33 c-6 -11 -5 -20 1 -24 5 -3 10 -16 9 -28 0 -14 -2 -17 -6 -7 -2
8 -7 22 -10 30 -11 28 -9 47 3 47 9 0 10 -5 3 -18z m824 1 c3 -11 1 -18 -4
-14 -5 3 -9 12 -9 20 0 20 7 17 13 -6z m-40 -148 c4 8 6 7 6 -4 1 -10 -4 -18
-10 -18 -8 0 -8 -4 0 -13 8 -10 7 -14 -4 -14 -8 0 -12 4 -9 9 8 12 -10 10 -26
-4 -12 -11 -12 -10 -2 3 6 9 9 19 6 22 -3 3 -3 11 1 17 5 8 10 8 20 0 10 -8
14 -7 18 2z m7 -68 c0 -8 -19 -13 -24 -6 -3 5 1 9 9 9 8 0 15 -2 15 -3z m-45
-23 c3 -5 2 -12 -3 -15 -5 -3 -9 1 -9 9 0 17 3 19 12 6z m31 -43 c3 -4 -1 -5
-10 -4 -8 1 -18 5 -22 8 -3 4 1 5 10 4 8 -1 18 -5 22 -8z m-15 -33 c3 2 5 -4
5 -15 0 -10 -5 -16 -10 -13 -5 4 -7 -1 -3 -11 4 -11 3 -15 -4 -11 -6 4 -8 14
-5 22 4 9 1 23 -6 32 -11 14 -11 14 3 4 9 -7 18 -11 20 -8z m-44 -249 c0 -8
-6 -12 -15 -8 -10 3 -13 1 -8 -6 7 -11 -31 -28 -41 -18 -4 3 2 6 12 6 10 0 15
3 11 7 -5 5 16 23 40 33 0 0 1 -6 1 -14z m-51 -112 c1 -9 0 -13 -4 -10 -3 4
-7 14 -8 22 -1 9 0 13 4 10 3 -4 7 -14 8 -22z m-298 -40 c-2 -10 2 -19 9 -21
7 -3 10 4 7 19 -4 21 -4 21 5 3 6 -15 5 -23 -7 -33 -14 -10 -18 -9 -24 9 -5
11 -6 25 -2 30 9 14 15 10 12 -7z m328 -9 c1 -8 -2 -13 -7 -9 -5 3 -9 12 -9
21 0 19 13 9 16 -12z m-112 -72 c7 -17 -4 -16 -28 2 -18 13 -18 14 3 12 11 -1
23 -7 25 -14z m-564 -360 c0 -14 -22 -43 -30 -38 -6 4 -7 -2 -3 -12 5 -15 3
-16 -7 -6 -8 7 -15 20 -16 28 -2 11 2 12 16 5 13 -7 20 -6 24 6 4 12 2 15 -9
10 -15 -5 -21 5 -9 17 6 6 34 -2 34 -10z m110 -52 c0 -17 -15 -19 -28 -5 -11
12 -9 14 8 14 11 0 20 -4 20 -9z m-147 -35 c8 5 8 2 0 -7 -7 -7 -13 -20 -13
-28 0 -14 1 -14 10 -1 5 8 10 11 10 5 0 -5 5 -3 10 5 8 12 9 9 6 -10 -2 -16
-10 -24 -20 -24 -9 1 -14 -2 -11 -6 3 -4 -2 -11 -11 -14 -12 -4 -13 -10 -6
-19 7 -8 6 -16 -3 -24 -21 -19 -29 4 -12 31 12 17 13 26 4 35 -7 7 -8 11 0 11
6 0 13 9 16 20 3 11 1 20 -5 20 -5 0 -6 5 -2 12 6 9 9 9 12 0 2 -7 9 -9 15 -6z
m152 -5 c3 -5 1 -12 -5 -16 -5 -3 -10 1 -10 9 0 18 6 21 15 7z m-132 -85 c4
-10 1 -13 -8 -9 -8 3 -12 9 -9 14 7 12 11 11 17 -5z m-10 -36 c3 -11 0 -18 -7
-17 -6 1 -10 -3 -9 -9 1 -7 -6 -10 -16 -7 -18 4 -17 6 3 28 11 12 22 23 22 24
1 1 4 -8 7 -19z m250 -44 c-5 -7 -9 -5 -11 7 -2 9 -8 14 -14 11 -7 -4 -8 -2
-4 5 6 9 11 9 22 0 7 -6 11 -16 7 -23z m-308 5 c3 -5 1 -12 -5 -16 -5 -3 -10
1 -10 9 0 18 6 21 15 7z m330 -40 c3 -5 2 -12 -3 -15 -5 -3 -9 1 -9 9 0 17 3
19 12 6z m51 -2 c3 -6 1 -15 -6 -19 -7 -4 -9 -13 -5 -20 5 -8 3 -11 -5 -8 -14
4 -22 36 -14 50 7 11 22 10 30 -3z m-396 -44 c-7 -9 -15 -13 -19 -10 -3 3 1
10 9 15 21 14 24 12 10 -5z m350 5 c0 -5 -2 -10 -4 -10 -3 0 -8 5 -11 10 -3 6
-1 10 4 10 6 0 11 -4 11 -10z m130 -30 c0 -5 -4 -10 -10 -10 -5 0 -10 5 -10
10 0 6 5 10 10 10 6 0 10 -4 10 -10z m-472 -35 c-1 -13 -6 -21 -10 -19 -5 3
-6 10 -2 15 3 5 0 17 -7 25 -10 12 -9 13 4 8 10 -3 16 -16 15 -29z m-2 -55 c0
-11 -6 -15 -17 -13 -10 3 -15 11 -13 17 7 19 30 15 30 -4z m-12 -52 c-1 -13
-3 -27 -3 -33 -1 -5 -8 3 -16 19 -12 23 -13 31 -3 37 17 11 25 3 22 -23z m-29
-38 c-2 -11 0 -20 6 -20 5 0 9 -4 9 -8 0 -5 -14 -9 -30 -9 -20 0 -26 3 -18 9
7 4 9 8 4 8 -5 0 -1 9 9 20 10 11 19 20 21 20 2 0 1 -9 -1 -20z m629 12 c3 -5
-1 -9 -9 -9 -8 0 -12 4 -9 9 3 4 7 8 9 8 2 0 6 -4 9 -8z m-4 -56 c0 -3 -4 -8
-10 -11 -5 -3 -10 -1 -10 4 0 6 5 11 10 11 6 0 10 -2 10 -4z m-665 -50 c-1
-40 -10 -56 -17 -29 -4 16 6 63 14 63 2 0 3 -16 3 -34z m655 -26 c0 -5 -5 -10
-11 -10 -5 0 -7 5 -4 10 3 6 8 10 11 10 2 0 4 -4 4 -10z m-59 -37 c-12 -20
-14 -14 -5 12 4 9 9 14 11 11 3 -2 0 -13 -6 -23z m-601 -13 c12 -8 12 -10 1
-10 -11 0 -11 -3 -1 -15 7 -8 10 -15 6 -15 -3 0 -9 0 -13 0 -5 0 -8 4 -8 9 0
5 -3 13 -7 17 -21 20 -4 31 22 14z m613 -34 c3 3 10 -3 16 -15 8 -13 8 -22 1
-26 -6 -4 -10 -3 -9 2 3 18 -1 36 -8 30 -3 -4 -12 -2 -20 4 -10 9 -13 8 -13
-1 0 -8 -3 -11 -6 -7 -12 12 7 28 20 18 7 -6 15 -8 19 -5z m-640 -27 c3 -12
10 -18 16 -15 5 4 12 2 16 -4 3 -5 -1 -10 -10 -10 -9 0 -14 -4 -11 -8 3 -5 -8
-8 -24 -8 -23 0 -27 3 -19 12 6 7 7 19 3 25 -5 8 -3 9 6 4 10 -6 12 -4 7 8 -3
10 -3 17 2 17 5 0 11 -9 14 -21z m632 -32 c1 -7 7 -11 15 -9 10 2 11 0 2 -11
-7 -8 -10 -17 -7 -21 3 -3 -1 -2 -7 4 -7 6 -13 22 -14 35 0 14 2 23 5 19 3 -3
6 -11 6 -17z m-676 -108 c-1 -34 -5 -56 -9 -49 -4 7 -5 28 -3 47 4 28 2 34 -9
27 -10 -6 -11 -5 -1 8 7 8 10 18 6 21 -3 4 -1 7 5 7 8 0 11 -21 11 -61z m691
43 c0 -15 -11 -21 -27 -15 -12 5 -12 7 -1 14 17 11 28 11 28 1z m-15 -70 c-3
-3 -11 0 -18 7 -9 10 -8 11 6 5 10 -3 15 -9 12 -12z m-700 -26 c2 -13 6 -33 9
-44 4 -11 2 -23 -4 -27 -6 -3 -8 -10 -6 -14 3 -4 -1 -8 -9 -8 -13 0 -13 3 0
17 17 19 20 34 5 25 -6 -3 -7 1 -4 10 4 8 0 23 -7 32 -10 12 -10 15 -1 9 6 -4
12 -2 12 3 0 6 -5 11 -11 11 -5 0 -7 5 -4 11 9 14 17 5 20 -25z m680 -26 c3
-5 1 -10 -4 -10 -6 0 -11 5 -11 10 0 6 2 10 4 10 3 0 8 -4 11 -10z m-695 -4
c0 -1 -5 -17 -11 -35 -11 -32 -23 -39 -35 -19 -4 6 -3 8 4 4 6 -3 13 -2 17 4
3 5 1 10 -4 10 -6 0 -11 5 -11 11 0 5 4 7 10 4 6 -3 7 1 4 9 -4 11 0 16 10 16
9 0 16 -2 16 -4z m-45 -138 c-7 -31 -8 -32 -16 -10 -10 26 -8 38 5 34 5 -2 5
5 2 15 -6 14 -4 15 4 6 8 -7 9 -23 5 -45z m-20 -36 c7 -23 7 -24 -12 -5 -10
10 -15 20 -11 21 5 2 5 9 2 15 -5 8 -4 9 3 2 6 -5 14 -21 18 -33z m731 3 c1
-7 -4 -16 -12 -19 -11 -4 -12 -1 -5 13 6 10 8 21 6 25 -3 3 -2 4 2 1 4 -3 8
-12 9 -20z m-52 -21 c3 -8 2 -12 -4 -9 -6 3 -10 10 -10 16 0 14 7 11 14 -7z
m-664 -30 c0 -3 -37 1 -50 6 -3 2 -9 2 -14 1 -5 -1 -4 5 3 13 11 14 15 14 37
-1 13 -8 24 -17 24 -19z m700 -5 c-7 -12 -6 -19 3 -22 7 -3 4 -6 -6 -6 -11 -1
-15 -6 -11 -13 4 -6 3 -8 -4 -4 -5 3 -13 0 -15 -6 -3 -7 -4 1 -3 18 4 39 11
51 30 51 11 0 13 -5 6 -18z m-785 -39 c-3 -5 -1 -10 4 -10 6 0 11 -8 10 -17 0
-11 -3 -13 -6 -5 -8 20 -22 14 -18 -8 2 -12 -2 -23 -11 -27 -13 -5 -13 -8 2
-24 10 -11 14 -22 11 -26 -4 -3 -7 -1 -7 6 0 7 -4 10 -8 7 -4 -2 -13 -2 -18 2
-11 7 29 112 41 112 4 0 3 -4 0 -10z m771 -63 c1 -9 -2 -19 -7 -23 -5 -3 -7
-9 -4 -14 3 -5 1 -12 -5 -15 -8 -5 -8 -11 -1 -19 8 -9 7 -13 -3 -13 -14 0 -16
21 -3 33 4 4 2 13 -5 21 -6 8 -7 13 -2 12 21 -4 24 2 13 22 -8 17 -8 20 2 17
7 -2 13 -12 15 -21z m-851 -97 c-3 -5 -1 -10 6 -10 7 0 9 -8 4 -22 -3 -13 -7
-29 -7 -37 -1 -10 -5 -8 -15 5 -7 10 -13 22 -13 27 0 11 19 47 26 47 3 0 2 -4
-1 -10z m835 -50 c0 -5 -2 -10 -4 -10 -3 0 -8 5 -11 10 -3 6 -1 10 4 10 6 0
11 -4 11 -10z m-856 -50 c-11 -11 -54 -22 -54 -14 0 2 12 9 26 14 16 6 23 15
18 22 -6 10 -4 11 7 1 9 -9 10 -16 3 -23z m36 -4 c0 -3 -4 -8 -10 -11 -5 -3
-10 -1 -10 4 0 6 5 11 10 11 6 0 10 -2 10 -4z m-39 -39 c-8 -8 -14 -7 -23 2
-11 10 -9 11 6 5 15 -6 17 -4 11 6 -6 9 -4 11 4 5 9 -5 10 -10 2 -18z m-41 4
c0 -5 -7 -12 -16 -15 -14 -5 -15 -4 -4 9 14 17 20 19 20 6z m811 -14 c-10 -9
-11 -8 -5 6 3 10 9 15 12 12 3 -3 0 -11 -7 -18z m-681 -2 c20 -24 6 -28 -15
-5 -10 11 -13 20 -8 20 6 0 16 -7 23 -15z m110 -49 c0 -3 -4 -8 -10 -11 -5 -3
-10 -1 -10 4 0 6 5 11 10 11 6 0 10 -2 10 -4z m24 -8 c-5 -8 -2 -9 9 -5 9 3
19 2 21 -2 4 -7 -28 -8 -42 -2 -5 2 8 21 14 21 3 0 2 -5 -2 -12z m169 -5 c-3
-7 -6 -13 -8 -13 -2 0 -5 6 -8 13 -3 8 1 14 8 14 7 0 11 -6 8 -14z m-33 -5 c0
-4 -7 -8 -16 -8 -9 0 -12 -5 -8 -12 5 -9 2 -9 -9 1 -18 15 -23 26 -7 16 6 -3
10 -2 10 3 0 5 7 9 15 9 8 0 15 -4 15 -9z m-65 -8 c3 -6 -1 -7 -9 -4 -18 7
-21 14 -7 14 6 0 13 -4 16 -10z m143 -2 c-3 -14 -18 -28 -30 -28 -4 0 0 9 9
20 20 23 24 25 21 8z m36 0 c-4 -6 1 -17 11 -25 11 -7 14 -13 8 -13 -16 0 -36
28 -28 40 3 5 8 10 11 10 3 0 2 -5 -2 -12z m344 -5 c-6 -8 -16 -12 -22 -10 -6
2 -17 -3 -24 -12 -11 -13 -12 -13 -6 -1 13 28 23 36 43 36 15 0 17 -3 9 -13z
m-208 -47 c0 -11 -19 -15 -25 -6 -3 5 1 10 9 10 9 0 16 -2 16 -4z m68 -17 c2
-9 1 -10 -5 -3 -4 6 -16 10 -26 8 -9 -1 -15 1 -12 6 8 13 38 5 43 -11z m57 13
c-3 -3 1 -12 7 -21 10 -13 10 -14 -1 -4 -7 6 -19 10 -25 9 -6 -2 -8 -1 -3 1 4
3 5 8 3 12 -3 4 1 8 9 8 8 0 13 -3 10 -5z m69 -8 c3 -8 0 -16 -6 -20 -7 -5 -8
-2 -3 6 6 9 4 12 -7 8 -8 -4 -15 -1 -15 6 0 17 25 16 31 0z m-29284 -7764
c835 -1547 1160 -2125 1483 -2634 l127 -199 -6 -191 c-25 -771 209 -1680 622
-2413 169 -299 341 -547 575 -826 77 -91 133 -206 134 -272 0 -43 -8 -64 -57
-150 -32 -55 -67 -127 -78 -159 -23 -67 -40 -190 -40 -288 l0 -68 -2468 0
-2468 0 -13 36 c-34 93 -157 165 -364 213 -223 52 -245 60 -297 111 -50 48
-166 201 -219 286 l-31 52 35 98 c19 55 91 263 161 464 442 1282 836 2267
1078 2698 31 56 102 162 156 235 235 313 474 789 728 1447 141 367 433 1168
653 1793 34 98 65 174 69 170 4 -4 103 -186 220 -403z m35294 -3595 c326
-1146 562 -2160 657 -2823 l11 -82 44 -11 c24 -6 44 -15 44 -19 0 -12 -135
-129 -211 -182 -185 -131 -429 -235 -674 -287 -130 -28 -211 -68 -269 -132
-25 -28 -46 -55 -46 -60 0 -5 -92 -9 -206 -9 -113 0 -203 4 -200 8 21 34 75
310 96 487 21 191 13 171 79 185 32 7 64 15 70 19 20 13 166 827 266 1481 84
558 172 1253 206 1645 11 129 16 162 23 154 2 -2 52 -170 110 -374z"/>
<path d="M44670 28109 c0 -5 5 -7 10 -4 6 3 10 8 10 11 0 2 -4 4 -10 4 -5 0
-10 -5 -10 -11z"/>
<path d="M44730 26533 c0 -7 6 -12 13 -10 6 1 12 -7 12 -17 0 -11 6 -21 13
-24 10 -3 11 22 2 48 -2 3 -2 8 -1 12 0 4 -8 6 -19 5 -11 -1 -20 -7 -20 -14z"/>
<path d="M45725 24120 c-4 -7 -1 -16 6 -21 17 -10 26 8 11 23 -6 6 -12 6 -17
-2z"/>
<path d="M46310 23479 c-15 -27 -4 -37 17 -16 12 12 13 17 5 17 -7 0 -10 5 -7
10 3 6 4 10 1 10 -3 0 -10 -9 -16 -21z"/>
<path d="M46280 23475 c0 -8 2 -15 4 -15 2 0 6 7 10 15 3 8 1 15 -4 15 -6 0
-10 -7 -10 -15z"/>
<path d="M45775 22990 c-3 -5 -1 -10 4 -10 6 0 11 5 11 10 0 6 -2 10 -4 10 -3
0 -8 -4 -11 -10z"/>
<path d="M46010 22780 c0 -5 5 -10 11 -10 5 0 7 5 4 10 -3 6 -8 10 -11 10 -2
0 -4 -4 -4 -10z"/>
<path d="M45010 26140 c0 -5 5 -10 11 -10 5 0 7 5 4 10 -3 6 -8 10 -11 10 -2
0 -4 -4 -4 -10z"/>
<path d="M45085 26040 c3 -5 11 -10 16 -10 6 0 7 5 4 10 -3 6 -11 10 -16 10
-6 0 -7 -4 -4 -10z"/>
<path d="M46420 24140 c0 -5 5 -10 11 -10 5 0 7 5 4 10 -3 6 -8 10 -11 10 -2
0 -4 -4 -4 -10z"/>
<path d="M45473 22345 c0 -8 4 -12 9 -9 5 3 6 10 3 15 -9 13 -12 11 -12 -6z"/>
<path d="M46026 21915 c-9 -26 -7 -32 5 -12 6 10 9 21 6 23 -2 3 -7 -2 -11
-11z"/>
<path d="M45173 21685 c0 -8 4 -12 9 -9 4 3 8 9 8 15 0 5 -4 9 -8 9 -5 0 -9
-7 -9 -15z"/>
<path d="M21930 23724 c88 -32 191 -83 250 -125 33 -23 60 -43 60 -44 0 -1
-30 8 -67 22 -114 41 -199 55 -333 55 -190 0 -356 -45 -517 -141 -263 -156
-389 -332 -463 -646 -41 -171 -50 -315 -50 -785 1 -485 -3 -528 -56 -597 -32
-42 -110 -95 -255 -174 -170 -92 -246 -145 -329 -228 -73 -73 -123 -151 -154
-238 l-13 -38 256 0 c323 0 533 -25 707 -85 l56 -20 47 37 c169 136 286 262
392 427 46 71 59 100 65 145 10 83 36 149 110 285 37 66 68 122 69 124 1 1 31
-11 66 -27 198 -89 362 -117 518 -87 47 8 86 14 88 12 6 -6 -198 -93 -304
-129 -54 -19 -138 -45 -187 -57 -75 -20 -85 -25 -65 -33 30 -11 179 -1 279 19
275 55 572 214 861 461 47 40 89 73 92 73 16 0 50 -192 50 -285 1 -96 -2 -108
-60 -285 -85 -256 -97 -338 -54 -365 27 -16 210 175 302 315 125 190 156 399
84 573 -14 34 -41 123 -60 197 -107 428 -281 765 -473 915 -31 24 -89 59 -128
77 l-72 32 -11 69 c-56 338 -293 542 -656 563 l-90 5 45 -17z"/>
<path d="M21960 20247 c-65 -106 -140 -204 -208 -271 l-40 -38 20 -47 c11 -25
44 -100 73 -166 141 -320 220 -655 214 -900 -3 -117 -4 -112 68 -345 41 -133
35 -134 113 21 106 209 191 439 231 624 29 134 36 348 15 455 -10 47 -26 105
-37 129 -44 99 13 26 74 -95 39 -78 65 -152 77 -222 6 -32 8 5 5 118 -3 135
-8 182 -28 261 -50 193 -140 319 -290 405 -43 25 -112 75 -152 110 l-74 64
-61 -103z"/>
<path d="M56040 17488 c0 -7 139 -530 309 -1163 169 -632 305 -1154 301 -1160
-4 -5 17 -100 47 -210 49 -182 77 -284 87 -325 13 -52 199 -752 208 -782 l11
-38 4409 0 4408 0 0 1845 0 1845 -4890 0 c-3905 0 -4890 -3 -4890 -12z m2755
-432 c177 -87 219 -328 82 -468 -121 -124 -314 -125 -428 -1 -118 129 -112
305 16 421 94 86 215 104 330 48z m2989 5 c58 -29 118 -89 147 -149 34 -70 32
-179 -3 -247 -57 -109 -155 -170 -273 -169 -88 0 -153 31 -218 104 -142 157
-76 400 128 473 64 23 157 18 219 -12z m3246 12 c70 -23 150 -96 180 -165 31
-69 31 -164 2 -230 -88 -200 -338 -246 -489 -91 -150 155 -87 413 120 484 66
23 121 24 187 2z m-5960 -1738 l0 -745 -415 0 -415 0 0 745 0 745 415 0 415 0
0 -745z m3000 0 l0 -745 -415 0 -415 0 0 745 0 745 415 0 415 0 0 -745z m3270
0 l0 -745 -410 0 -410 0 0 745 0 745 410 0 410 0 0 -745z"/>
<path d="M61860 13073 c-173 -91 -170 -353 5 -442 l49 -26 1066 0 c1206 0
1123 -6 1198 80 112 127 67 338 -85 402 -26 11 -228 13 -1107 13 l-1074 0 -52
-27z"/>
</g>
</svg>
